<svg width="264" height="172" viewBox="0 0 264 172" fill="none" xmlns="http://www.w3.org/2000/svg">
<rect width="264" height="172" rx="16" fill="#70B9BE"/>
<mask id="mask0_701_895" style="mask-type:alpha" maskUnits="userSpaceOnUse" x="0" y="0" width="264" height="172">
<rect width="264" height="172" rx="16" fill="white"/>
</mask>
<g mask="url(#mask0_701_895)">
<circle cx="271" cy="30" r="151" fill="url(#paint0_linear_701_895)" fill-opacity="0.3"/>
<path d="M-135.173 16.0732C-127.256 14.0124 -105.869 16.9419 -83.6539 45.1469C-55.8853 80.4032 1.81662 152.297 40.4605 106.076C79.1045 59.854 88.8407 11.1875 65.7502 5.59564C42.6597 0.00377909 28.8348 49.1093 88.0499 70.8996C147.265 92.6898 218.815 43.8427 216.823 -30.6036" stroke="#3DA0A7"/>
<path d="M275.926 165.624C278.953 193.531 252.429 201.389 239.597 195.077C193.725 171.888 214.034 160.584 233.725 134.655C253.415 108.727 272.899 137.716 275.926 165.624Z" stroke="#3DA0A7"/>
</g>
<path d="M27.3023 54.3023C23.5539 58.0506 17.2576 57.8315 17.2576 57.8315C17.2576 57.8315 17.0385 51.5352 20.7868 47.7869C24.5351 44.0386 30.8314 44.2577 30.8314 44.2577C30.8314 44.2577 31.0506 50.554 27.3023 54.3023Z" fill="#FFF1CE"/>
<path d="M108.224 64.0113C108.378 63.7422 108.398 63.417 108.279 63.1308L104.847 54.8787C104.528 54.112 103.468 54.0455 103.055 54.7662L101.549 57.4006C101.395 57.6697 101.374 57.9949 101.493 58.2811L104.926 66.5332C105.244 67.2999 106.305 67.3664 106.717 66.6457L108.224 64.0113Z" fill="#FFF1CE"/>
<circle cx="51" cy="9" r="4" fill="#FFF1CE"/>
<defs>
<linearGradient id="paint0_linear_701_895" x1="300" y1="-25" x2="158.057" y2="165.041" gradientUnits="userSpaceOnUse">
<stop stop-color="white"/>
<stop offset="1" stop-color="white" stop-opacity="0"/>
</linearGradient>
</defs>
</svg>
